<?xml version="1.0" encoding="utf-8"?>
<!-- Generator: Adobe Illustrator 23.0.1, SVG Export Plug-In . SVG Version: 6.00 Build 0)  -->
<svg version="1.1" id="Layer_1" xmlns="http://www.w3.org/2000/svg" xmlns:xlink="http://www.w3.org/1999/xlink" x="0px" y="0px"
	 viewBox="0 0 462.63 462.63" style="enable-background:new 0 0 462.63 462.63;" xml:space="preserve">
<style type="text/css">
	.st0{fill:#701345;}
	.st1{fill:#56C6D0;}
	.st2{fill:#E85D88;}
	.st3{fill:#F7AF40;}
	.st4{fill:#701445;}
	.st5{fill:#FFFFFF;}
	.st6{fill:#FDFDFE;}
</style>
<rect x="-0.06" class="st0" width="462.63" height="462.63"/>
<path class="st1" d="M231.32,308.08c0.21,0,0.43,0,0.64,0c7.52,0,15.04,1.13,22.11,3.39c1-2.56,1.83-5.15,2.51-7.8
	c-8.24-2.24-16.43-3.35-24.62-3.35c-0.21,0-0.43,0-0.64,0c-0.21,0-0.43,0-0.64,0c-8.19,0-16.38,1.12-24.62,3.35
	c0.68,2.64,1.51,5.24,2.51,7.8c7.07-2.26,14.59-3.39,22.11-3.39C230.89,308.08,231.1,308.08,231.32,308.08z"/>
<path class="st1" d="M285.6,177.03c-0.15-0.15-0.3-0.3-0.45-0.45c-5.32-5.32-9.84-11.43-13.24-18.03c-2.52,1.1-4.94,2.35-7.29,3.74
	c4.25,7.41,9.25,13.99,15.04,19.78c0.15,0.15,0.3,0.3,0.45,0.45c0.15,0.15,0.3,0.3,0.45,0.45c5.79,5.79,12.37,10.79,19.78,15.04
	c1.39-2.35,2.64-4.77,3.74-7.29c-6.6-3.4-12.71-7.92-18.03-13.24C285.9,177.34,285.75,177.19,285.6,177.03z"/>
<path class="st1" d="M177.03,177.03c-0.15,0.15-0.3,0.3-0.45,0.45c-5.32,5.32-11.43,9.84-18.03,13.24c1.1,2.52,2.35,4.94,3.74,7.29
	c7.41-4.25,13.99-9.25,19.78-15.04c0.15-0.15,0.3-0.3,0.45-0.45c0.15-0.15,0.3-0.3,0.45-0.45c5.79-5.79,10.79-12.37,15.04-19.78
	c-2.35-1.39-4.77-2.64-7.29-3.74c-3.4,6.6-7.92,12.71-13.24,18.03C177.34,176.74,177.19,176.89,177.03,177.03z"/>
<path class="st1" d="M158.41,158.41c-0.15,0.15-0.3,0.3-0.45,0.45c-1.85,1.85-3.83,3.58-5.93,5.16c0.21,2.53,0.51,5.06,0.92,7.58
	c3.57-2.32,6.84-4.97,9.81-7.93c0.15-0.15,0.3-0.3,0.45-0.45c0.15-0.15,0.3-0.3,0.45-0.45c2.96-2.96,5.62-6.24,7.93-9.81
	c-2.52-0.41-5.05-0.71-7.58-0.92c-1.58,2.09-3.31,4.07-5.16,5.93C158.71,158.11,158.56,158.26,158.41,158.41z"/>
<path class="st1" d="M137.59,192.49c-1.57-6.38-2.47-13-2.82-19.67c-1.96,0.6-3.96,1.04-6.01,1.4c-0.16,4.91-0.08,9.86,0.31,14.75
	c-3.73,3.18-7.29,6.62-10.65,10.21c1.19,1.7,2.3,3.43,3.26,5.24C126.65,199.94,131.97,195.89,137.59,192.49z"/>
<path class="st1" d="M231.32,154.55c-0.21,0-0.43,0-0.64,0c-7.52,0-15.04-1.13-22.11-3.39c-1,2.56-1.83,5.15-2.51,7.8
	c8.24,2.24,16.43,3.35,24.62,3.35c0.21,0,0.43,0,0.64,0c0.21,0,0.43,0,0.64,0c8.19,0,16.38-1.12,24.62-3.35
	c-0.68-2.64-1.51-5.24-2.51-7.8c-7.07,2.26-14.59,3.39-22.11,3.39C231.74,154.55,231.53,154.55,231.32,154.55z"/>
<path class="st1" d="M304.22,158.41c-0.15-0.15-0.3-0.3-0.45-0.45c-1.85-1.85-3.58-3.83-5.16-5.93c-2.53,0.21-5.06,0.51-7.58,0.92
	c2.32,3.57,4.97,6.84,7.93,9.81c0.15,0.15,0.3,0.3,0.45,0.45c0.15,0.15,0.3,0.3,0.45,0.45c2.96,2.96,6.24,5.62,9.81,7.93
	c0.41-2.52,0.71-5.05,0.92-7.58c-2.09-1.58-4.07-3.31-5.93-5.16C304.52,158.71,304.37,158.56,304.22,158.41z"/>
<path class="st1" d="M325.04,192.49c5.62,3.4,10.94,7.45,15.9,11.92c0.96-1.81,2.07-3.54,3.26-5.24
	c-3.36-3.58-6.91-7.02-10.65-10.21c0.39-4.89,0.47-9.84,0.31-14.75c-2.05-0.36-4.05-0.8-6.01-1.4
	C327.51,179.49,326.61,186.12,325.04,192.49z"/>
<path class="st1" d="M308.08,231.32c0-0.21,0-0.43,0-0.64c0-7.52,1.13-15.04,3.39-22.11c-2.56-1-5.15-1.83-7.8-2.51
	c-2.24,8.24-3.35,16.43-3.35,24.62c0,0.21,0,0.43,0,0.64c0,0.21,0,0.43,0,0.64c0,8.19,1.12,16.38,3.35,24.62
	c2.64-0.68,5.24-1.51,7.8-2.51c-2.26-7.07-3.39-14.59-3.39-22.11C308.08,231.74,308.08,231.53,308.08,231.32z"/>
<path class="st1" d="M154.55,231.32c0,0.21,0,0.43,0,0.64c0,7.52-1.13,15.04-3.39,22.11c2.56,1,5.15,1.83,7.8,2.51
	c2.24-8.24,3.35-16.43,3.35-24.62c0-0.21,0-0.43,0-0.64c0-0.21,0-0.43,0-0.64c0-8.19-1.12-16.38-3.35-24.62
	c-2.64,0.68-5.24,1.51-7.8,2.51c2.26,7.07,3.39,14.59,3.39,22.11C154.55,230.89,154.55,231.1,154.55,231.32z"/>
<path class="st1" d="M325.04,270.14c1.57,6.38,2.47,13,2.82,19.67c1.96-0.6,3.96-1.04,6.01-1.4c0.16-4.91,0.08-9.86-0.31-14.75
	c3.73-3.18,7.29-6.62,10.65-10.21c-1.19-1.7-2.3-3.43-3.26-5.24C335.99,262.69,330.66,266.74,325.04,270.14z"/>
<path class="st1" d="M137.59,270.14c-5.62-3.4-10.94-7.45-15.9-11.92c-0.96,1.81-2.07,3.54-3.26,5.24
	c3.36,3.58,6.91,7.02,10.65,10.21c-0.39,4.89-0.47,9.84-0.31,14.75c2.05,0.36,4.05,0.8,6.01,1.4
	C135.12,283.14,136.02,276.52,137.59,270.14z"/>
<path class="st1" d="M60.81,320.46c3.12,3.51-1.84,8.49-5.17,5.17C52.3,322.29,57.31,317.36,60.81,320.46z"/>
<path class="st1" d="M401.83,320.46c-3.12,3.51,1.84,8.49,5.17,5.17C410.34,322.29,405.32,317.36,401.83,320.46z"/>
<path class="st1" d="M401.83,142.17c-3.12-3.51,1.84-8.49,5.17-5.17C410.34,140.35,405.32,145.27,401.83,142.17z"/>
<path class="st1" d="M60.81,142.17c3.12-3.51-1.84-8.49-5.17-5.17C52.3,140.35,57.31,145.27,60.81,142.17z"/>
<path class="st2" d="M177.86,102.26c6.38-5.17,12.95-10.2,19.4-15.23c11.48-8.97,22.58-17.87,31.46-27.46
	c0.5-0.53,1.23-0.8,1.96-0.8c0.21,0,0.43,0.02,0.64,0.07c0.21-0.05,0.42-0.07,0.64-0.07c0.73,0,1.46,0.27,1.96,0.8
	c8.88,9.58,19.98,18.49,31.46,27.46c6.45,5.02,13.02,10.06,19.4,15.23c8.17,0.86,16.37,1.94,24.48,2.95
	c14.46,1.78,28.6,3.33,41.66,2.83c0.73-0.02,1.43,0.3,1.95,0.82c0.15,0.15,0.29,0.32,0.4,0.5c0.18,0.11,0.35,0.25,0.5,0.4
	c0.52,0.52,0.84,1.22,0.82,1.95c-0.5,13.06,1.05,27.2,2.83,41.66c1.01,8.11,2.09,16.32,2.95,24.48c5.17,6.38,10.2,12.95,15.23,19.4
	c8.97,11.48,17.87,22.58,27.46,31.46c0.53,0.5,0.8,1.23,0.8,1.96c0,0.21-0.02,0.43-0.07,0.64c0.05,0.21,0.07,0.42,0.07,0.64
	c0,0.73-0.27,1.46-0.8,1.96c-9.58,8.88-18.49,19.98-27.46,31.46c-5.02,6.45-10.06,13.02-15.23,19.4
	c-0.86,8.17-1.94,16.37-2.95,24.48c-1.78,14.46-3.33,28.6-2.83,41.66c0.02,0.73-0.3,1.43-0.82,1.95c-0.15,0.15-0.32,0.29-0.5,0.4
	c-0.11,0.18-0.25,0.35-0.4,0.5c-0.52,0.52-1.22,0.84-1.95,0.82c-13.06-0.5-27.2,1.05-41.66,2.83c-8.11,1.01-16.32,2.09-24.48,2.95
	c-6.38,5.17-12.95,10.2-19.4,15.23c-11.48,8.97-22.58,17.87-31.46,27.46c-0.5,0.53-1.23,0.8-1.96,0.8c-0.21,0-0.43-0.02-0.64-0.07
	c-0.21,0.05-0.42,0.07-0.64,0.07c-0.73,0-1.46-0.27-1.96-0.8c-8.88-9.58-19.98-18.49-31.46-27.46c-6.45-5.02-13.02-10.06-19.4-15.23
	c-8.17-0.86-16.37-1.94-24.48-2.95c-14.46-1.78-28.6-3.33-41.66-2.83c-0.73,0.02-1.43-0.3-1.95-0.82c-0.15-0.15-0.29-0.32-0.4-0.5
	c-0.18-0.11-0.35-0.25-0.5-0.4c-0.52-0.52-0.84-1.22-0.82-1.95c0.5-13.06-1.05-27.2-2.83-41.66c-1.01-8.11-2.09-16.32-2.95-24.48
	c-5.17-6.38-10.2-12.95-15.23-19.4c-8.97-11.48-17.87-22.58-27.46-31.46c-0.53-0.5-0.8-1.23-0.8-1.96c0-0.21,0.02-0.43,0.07-0.64
	c-0.05-0.21-0.07-0.42-0.07-0.64c0-0.73,0.27-1.46,0.8-1.96c9.58-8.88,18.49-19.98,27.46-31.46c5.02-6.45,10.06-13.02,15.23-19.4
	c0.86-8.17,1.94-16.37,2.95-24.48c1.78-14.46,3.33-28.6,2.83-41.66c-0.02-0.73,0.3-1.43,0.82-1.95c0.15-0.15,0.32-0.29,0.5-0.4
	c0.11-0.18,0.25-0.35,0.4-0.5c0.52-0.52,1.22-0.84,1.95-0.82c13.06,0.5,27.2-1.05,41.66-2.83
	C161.48,104.2,169.69,103.12,177.86,102.26z M231.32,46.41c-0.22-0.01-0.43-0.02-0.64-0.02c-13.63,0-40.28,28.29-53.12,38
	c-1.8,1.36-3.59,2.73-5.39,4.13c-2.26,0.28-4.5,0.58-6.73,0.89c-15.95,2.21-54.79,1.05-64.43,10.69c-0.15,0.15-0.29,0.3-0.44,0.47
	c-0.16,0.14-0.32,0.29-0.47,0.44c-9.64,9.64-8.48,48.48-10.69,64.43c-0.31,2.23-0.61,4.47-0.89,6.73c-1.4,1.79-2.77,3.59-4.13,5.39
	c-9.71,12.84-38,39.49-38,53.12c0,0.21,0.01,0.42,0.02,0.64c-0.01,0.22-0.02,0.43-0.02,0.64c0,13.63,28.29,40.28,38,53.12
	c1.36,1.8,2.73,3.59,4.13,5.39c0.28,2.26,0.58,4.5,0.89,6.73c2.21,15.95,1.05,54.79,10.69,64.43c0.15,0.15,0.3,0.29,0.47,0.44
	c0.14,0.16,0.29,0.32,0.44,0.47c9.64,9.64,48.48,8.48,64.43,10.69c2.23,0.31,4.47,0.61,6.73,0.89c1.79,1.4,3.59,2.77,5.39,4.13
	c12.84,9.71,39.49,38,53.12,38c0.21,0,0.42-0.01,0.64-0.02c0.22,0.01,0.43,0.02,0.64,0.02c13.63,0,40.28-28.29,53.12-38
	c1.8-1.36,3.59-2.73,5.39-4.13c2.26-0.28,4.5-0.58,6.73-0.89c15.95-2.21,54.79-1.05,64.43-10.69c0.15-0.15,0.29-0.3,0.44-0.47
	c0.16-0.14,0.32-0.29,0.47-0.44c9.64-9.64,8.48-48.48,10.69-64.43c0.31-2.23,0.61-4.47,0.89-6.73c1.4-1.79,2.77-3.59,4.13-5.39
	c9.71-12.84,38-39.49,38-53.12c0-0.21-0.01-0.42-0.02-0.64c0.01-0.22,0.02-0.43,0.02-0.64c0-13.63-28.29-40.28-38-53.12
	c-1.36-1.8-2.73-3.59-4.13-5.39c-0.28-2.26-0.58-4.5-0.89-6.73c-2.21-15.95-1.05-54.79-10.69-64.43c-0.15-0.15-0.3-0.29-0.47-0.44
	c-0.14-0.16-0.29-0.32-0.44-0.47c-9.64-9.64-48.48-8.48-64.43-10.69c-2.23-0.31-4.47-0.61-6.73-0.89c-1.79-1.4-3.59-2.77-5.39-4.13
	c-12.84-9.71-39.49-38-53.12-38C231.75,46.39,231.53,46.4,231.32,46.41z"/>
<path class="st3" d="M231.32,115.33c-0.21,0-0.43,0-0.64,0c-13.7,0-27.4-6.63-35.76-19.91c-2.04,1.73-3.96,3.39-5.71,4.86
	c9.76,14.96,25.62,22.44,41.47,22.43c0.21,0,0.43,0,0.64,0c0.21,0,0.43,0,0.64,0c15.85,0,31.71-7.47,41.47-22.43
	c-1.75-1.47-3.66-3.13-5.71-4.86c-8.37,13.28-22.07,19.91-35.76,19.91C231.74,115.33,231.53,115.33,231.32,115.33z"/>
<path class="st3" d="M313.33,149.3c-0.15-0.15-0.3-0.3-0.46-0.45c-9.69-9.68-14.68-24.06-11.21-39.37c-2.67-0.23-5.2-0.41-7.47-0.6
	c-3.68,17.48,2.25,33.98,13.46,45.19c0.15,0.15,0.3,0.3,0.45,0.45c0.15,0.15,0.3,0.3,0.45,0.45c11.21,11.21,27.71,17.14,45.19,13.46
	c-0.2-2.27-0.38-4.8-0.6-7.47c-15.31,3.47-29.68-1.52-39.37-11.21C313.63,149.6,313.48,149.45,313.33,149.3z"/>
<path class="st3" d="M347.31,231.32c0-0.21,0-0.43,0-0.64c0-13.7,6.63-27.4,19.91-35.76c-1.73-2.04-3.39-3.96-4.86-5.71
	c-14.96,9.76-22.44,25.62-22.43,41.47c0,0.21,0,0.43,0,0.64c0,0.21,0,0.43,0,0.64c0,15.85,7.47,31.71,22.43,41.47
	c1.47-1.75,3.13-3.66,4.86-5.71c-13.28-8.37-19.91-22.07-19.91-35.76C347.3,231.74,347.3,231.53,347.31,231.32z"/>
<path class="st3" d="M313.33,313.33c0.15-0.15,0.3-0.3,0.45-0.46c9.68-9.69,24.06-14.68,39.37-11.21c0.23-2.67,0.41-5.2,0.6-7.47
	c-17.48-3.68-33.98,2.25-45.19,13.46c-0.15,0.15-0.3,0.3-0.45,0.45c-0.15,0.15-0.3,0.3-0.45,0.45
	c-11.21,11.21-17.14,27.71-13.46,45.19c2.27-0.2,4.8-0.38,7.47-0.6c-3.47-15.31,1.52-29.68,11.21-39.37
	C313.03,313.63,313.18,313.48,313.33,313.33z"/>
<path class="st3" d="M231.32,347.31c0.21,0,0.43,0,0.64,0c13.7,0,27.4,6.63,35.76,19.91c2.04-1.73,3.96-3.39,5.71-4.86
	c-9.76-14.96-25.62-22.44-41.47-22.43c-0.21,0-0.43,0-0.64,0c-0.21,0-0.43,0-0.64,0c-15.85,0-31.71,7.47-41.47,22.43
	c1.75,1.47,3.66,3.13,5.71,4.86c8.37-13.28,22.07-19.91,35.76-19.91C230.89,347.3,231.1,347.3,231.32,347.31z"/>
<path class="st3" d="M149.3,313.33c0.15,0.15,0.3,0.3,0.46,0.45c9.69,9.68,14.68,24.06,11.21,39.37c2.67,0.23,5.2,0.41,7.47,0.6
	c3.68-17.48-2.25-33.98-13.46-45.19c-0.15-0.15-0.3-0.3-0.45-0.45c-0.15-0.15-0.3-0.3-0.45-0.45
	c-11.21-11.21-27.71-17.14-45.19-13.46c0.2,2.27,0.38,4.8,0.6,7.47c15.31-3.47,29.68,1.52,39.37,11.21
	C149,313.03,149.15,313.18,149.3,313.33z"/>
<path class="st3" d="M115.33,231.32c0,0.21,0,0.43,0,0.64c0,13.7-6.63,27.4-19.91,35.76c1.73,2.04,3.39,3.96,4.86,5.71
	c14.96-9.76,22.44-25.62,22.43-41.47c0-0.21,0-0.43,0-0.64c0-0.21,0-0.43,0-0.64c0-15.85-7.47-31.71-22.43-41.47
	c-1.47,1.75-3.13,3.66-4.86,5.71c13.28,8.37,19.91,22.07,19.91,35.76C115.33,230.89,115.33,231.1,115.33,231.32z"/>
<path class="st3" d="M149.3,149.3c-0.15,0.15-0.3,0.3-0.45,0.46c-9.68,9.69-24.06,14.68-39.37,11.21c-0.23,2.67-0.41,5.2-0.6,7.47
	c17.48,3.68,33.98-2.25,45.19-13.46c0.15-0.15,0.3-0.3,0.45-0.45c0.15-0.15,0.3-0.3,0.45-0.45c11.21-11.21,17.14-27.71,13.46-45.19
	c-2.27,0.2-4.8,0.38-7.47,0.6c3.47,15.31-1.52,29.68-11.21,39.37C149.6,149,149.45,149.15,149.3,149.3z"/>
<path class="st3" d="M206.91,172.4c7.5,2.11,15.63,3.16,23.77,3.16c0.21,0,0.43,0,0.64,0c0.21,0,0.43,0,0.64,0
	c8.14,0,16.27-1.05,23.77-3.16c3.81,6.79,8.82,13.29,14.57,19.04c0.15,0.15,0.3,0.3,0.45,0.45c0.15,0.15,0.3,0.3,0.45,0.45
	c5.75,5.75,12.25,10.76,19.04,14.57c-2.11,7.5-3.16,15.63-3.16,23.77c0,0.21,0,0.43,0,0.64c0,0.21,0,0.43,0,0.64
	c0,8.14,1.05,16.27,3.16,23.77c-6.79,3.81-13.29,8.82-19.04,14.57c-0.15,0.15-0.3,0.3-0.45,0.45c-0.15,0.15-0.3,0.3-0.45,0.45
	c-5.75,5.75-10.76,12.25-14.57,19.04c-7.5-2.11-15.63-3.16-23.77-3.16c-0.21,0-0.43,0-0.64,0c-0.21,0-0.43,0-0.64,0
	c-8.14,0-16.27,1.05-23.77,3.16c-3.81-6.79-8.82-13.29-14.57-19.04c-0.15-0.15-0.3-0.3-0.45-0.45c-0.15-0.15-0.3-0.3-0.45-0.45
	c-5.75-5.75-12.25-10.76-19.04-14.57c2.11-7.5,3.16-15.63,3.16-23.77c0-0.21,0-0.43,0-0.64c0-0.21,0-0.43,0-0.64
	c0-8.14-1.05-16.27-3.16-23.77c6.79-3.81,13.29-8.82,19.04-14.57c0.15-0.15,0.3-0.3,0.45-0.45c0.15-0.15,0.3-0.3,0.45-0.45
	C198.09,185.68,203.1,179.18,206.91,172.4z M231.32,167.84c-0.21,0-0.43,0-0.64,0c-8.59,0-17.18-1.16-25.77-3.47
	c-0.12,0.8-0.23,1.6-0.32,2.4c-0.63-0.5-1.28-0.99-1.93-1.47c-4.44,7.71-9.7,14.6-15.77,20.68c-0.15,0.15-0.3,0.3-0.45,0.45
	c-0.15,0.15-0.3,0.3-0.45,0.45c-6.07,6.07-12.96,11.33-20.68,15.77c0.48,0.65,0.97,1.29,1.47,1.93c-0.8,0.09-1.6,0.2-2.4,0.32
	c2.31,8.59,3.47,17.18,3.47,25.77c0,0.21,0,0.43,0,0.64c0,0.21,0,0.43,0,0.64c0,8.59-1.16,17.18-3.47,25.77
	c0.8,0.12,1.6,0.23,2.4,0.32c-0.5,0.63-0.99,1.28-1.47,1.93c7.71,4.44,14.6,9.7,20.68,15.77c0.15,0.15,0.3,0.3,0.45,0.45
	c0.15,0.15,0.3,0.3,0.45,0.45c6.07,6.07,11.33,12.96,15.77,20.68c0.65-0.48,1.29-0.97,1.93-1.47c0.09,0.8,0.2,1.6,0.32,2.4
	c8.59-2.31,17.18-3.47,25.77-3.47c0.21,0,0.43,0,0.64,0c0.21,0,0.43,0,0.64,0c8.59,0,17.18,1.16,25.77,3.47
	c0.12-0.8,0.23-1.6,0.32-2.4c0.63,0.5,1.28,0.99,1.93,1.47c4.44-7.71,9.7-14.6,15.77-20.68c0.15-0.15,0.3-0.3,0.45-0.45
	c0.15-0.15,0.3-0.3,0.45-0.45c6.07-6.07,12.96-11.33,20.68-15.77c-0.48-0.65-0.97-1.29-1.47-1.93c0.8-0.09,1.6-0.2,2.4-0.32
	c-2.31-8.59-3.47-17.18-3.47-25.77c0-0.21,0-0.43,0-0.64c0-0.21,0-0.43,0-0.64c0-8.59,1.16-17.18,3.47-25.77
	c-0.8-0.12-1.6-0.23-2.4-0.32c0.5-0.63,0.99-1.28,1.47-1.93c-7.71-4.44-14.6-9.7-20.68-15.77c-0.15-0.15-0.3-0.3-0.45-0.45
	c-0.15-0.15-0.3-0.3-0.45-0.45c-6.07-6.07-11.33-12.96-15.77-20.68c-0.65,0.48-1.29,0.97-1.93,1.47c-0.09-0.8-0.2-1.6-0.32-2.4
	c-8.59,2.31-17.18,3.47-25.77,3.47C231.74,167.84,231.53,167.84,231.32,167.84z"/>
<path class="st3" d="M231.32,91.46c-0.21,0.01-0.43,0.01-0.64,0.01c-6.96,0-13.92-3.77-16.66-11.31c-1.77,1.24-3.56,2.58-5.37,3.96
	c4.73,9.23,13.38,13.85,22.02,13.84c0.21,0,0.43,0,0.64-0.01c0.21,0.01,0.43,0.01,0.64,0.01c8.65,0,17.29-4.61,22.02-13.84
	c-1.81-1.38-3.6-2.73-5.37-3.96c-2.74,7.55-9.7,11.32-16.66,11.31C231.74,91.47,231.53,91.46,231.32,91.46z"/>
<path class="st3" d="M330.21,132.42c-0.16-0.15-0.31-0.29-0.46-0.44c-4.92-4.92-7.18-12.51-3.78-19.78
	c-2.12-0.38-4.34-0.69-6.6-0.99c-3.18,9.88-0.33,19.25,5.79,25.36c0.15,0.15,0.3,0.3,0.46,0.45c0.15,0.15,0.3,0.31,0.45,0.46
	c6.11,6.12,15.48,8.97,25.36,5.79c-0.3-2.26-0.62-4.47-0.99-6.6c-7.27,3.4-14.86,1.15-19.78-3.78
	C330.51,132.73,330.36,132.58,330.21,132.42z"/>
<path class="st3" d="M371.18,231.32c-0.01-0.21-0.01-0.43-0.01-0.64c-0.01-6.96,3.77-13.92,11.31-16.66
	c-1.24-1.77-2.58-3.56-3.96-5.37c-9.23,4.73-13.85,13.38-13.84,22.02c0,0.21,0,0.43,0.01,0.64c-0.01,0.21-0.01,0.43-0.01,0.64
	c0,8.65,4.61,17.29,13.84,22.02c1.38-1.81,2.73-3.6,3.96-5.37c-7.55-2.74-11.32-9.7-11.31-16.66
	C371.17,231.74,371.17,231.53,371.18,231.32z"/>
<path class="st3" d="M330.21,330.21c0.15-0.16,0.29-0.31,0.44-0.46c4.92-4.92,12.51-7.18,19.78-3.78c0.38-2.12,0.69-4.34,0.99-6.6
	c-9.88-3.18-19.25-0.33-25.36,5.79c-0.15,0.15-0.3,0.3-0.45,0.46c-0.15,0.15-0.31,0.3-0.46,0.45c-6.12,6.11-8.97,15.48-5.79,25.36
	c2.26-0.3,4.47-0.62,6.6-0.99c-3.4-7.27-1.15-14.86,3.78-19.78C329.91,330.51,330.06,330.36,330.21,330.21z"/>
<path class="st3" d="M231.32,371.18c0.21-0.01,0.43-0.01,0.64-0.01c6.96,0,13.92,3.77,16.66,11.31c1.77-1.24,3.56-2.58,5.37-3.96
	c-4.73-9.23-13.38-13.85-22.02-13.84c-0.21,0-0.43,0-0.64,0.01c-0.21-0.01-0.43-0.01-0.64-0.01c-8.65,0-17.29,4.61-22.02,13.84
	c1.81,1.38,3.6,2.73,5.37,3.96c2.74-7.55,9.7-11.32,16.66-11.31C230.89,371.17,231.1,371.17,231.32,371.18z"/>
<path class="st3" d="M132.42,330.21c0.16,0.15,0.31,0.29,0.46,0.44c4.92,4.92,7.18,12.51,3.78,19.78c2.12,0.38,4.34,0.69,6.6,0.99
	c3.18-9.88,0.33-19.25-5.79-25.36c-0.15-0.15-0.3-0.3-0.46-0.45c-0.15-0.15-0.3-0.31-0.45-0.46c-6.11-6.12-15.48-8.97-25.36-5.79
	c0.3,2.26,0.62,4.47,0.99,6.6c7.27-3.4,14.86-1.15,19.78,3.78C132.13,329.91,132.27,330.06,132.42,330.21z"/>
<path class="st3" d="M91.46,231.32c0.01,0.21,0.01,0.43,0.01,0.64c0,6.96-3.77,13.92-11.31,16.66c1.24,1.77,2.58,3.56,3.96,5.37
	c9.23-4.73,13.85-13.38,13.84-22.02c0-0.21,0-0.43-0.01-0.64c0.01-0.21,0.01-0.43,0.01-0.64c0-8.65-4.61-17.29-13.84-22.02
	c-1.38,1.81-2.73,3.6-3.96,5.37c7.55,2.74,11.32,9.7,11.31,16.66C91.47,230.89,91.46,231.1,91.46,231.32z"/>
<path class="st3" d="M132.42,132.42c-0.15,0.16-0.29,0.31-0.44,0.46c-4.92,4.92-12.51,7.18-19.78,3.78
	c-0.38,2.12-0.69,4.34-0.99,6.6c9.88,3.18,19.25,0.33,25.36-5.79c0.15-0.15,0.3-0.3,0.45-0.46c0.15-0.15,0.31-0.3,0.46-0.45
	c6.12-6.11,8.97-15.48,5.79-25.36c-2.26,0.3-4.47,0.62-6.6,0.99c3.4,7.27,1.15,14.86-3.78,19.78
	C132.73,132.13,132.58,132.27,132.42,132.42z"/>
<path class="st3" d="M231.32,140.58c-0.21,0-0.43,0-0.64,0c-5.29,0-10.58-0.64-15.78-1.92c-1.51,2.41-2.9,4.86-4.11,7.39
	c6.41,1.96,13.15,2.94,19.89,2.94c0.21,0,0.43,0,0.64,0c0.21,0,0.43,0,0.64,0c6.74,0,13.48-0.98,19.89-2.94
	c-1.21-2.53-2.6-4.98-4.11-7.39c-5.21,1.28-10.5,1.92-15.78,1.92C231.74,140.58,231.53,140.58,231.32,140.58z"/>
<path class="st3" d="M295.48,167.15c-0.15-0.15-0.3-0.3-0.45-0.45c-3.74-3.74-7.03-7.93-9.8-12.52c-2.77,0.63-5.48,1.39-8.13,2.32
	c3.15,5.92,7.22,11.38,11.99,16.15c0.15,0.15,0.3,0.3,0.45,0.45c0.15,0.15,0.3,0.3,0.45,0.45c4.77,4.77,10.23,8.84,16.15,11.99
	c0.93-2.65,1.69-5.36,2.32-8.13c-4.59-2.78-8.78-6.07-12.52-9.8C295.78,167.46,295.63,167.31,295.48,167.15z"/>
<path class="st3" d="M322.06,231.32c0-0.21,0-0.43,0-0.64c0-5.29,0.64-10.58,1.92-15.78c-2.41-1.51-4.86-2.9-7.39-4.11
	c-1.96,6.41-2.94,13.15-2.94,19.89c0,0.21,0,0.43,0,0.64c0,0.21,0,0.43,0,0.64c0,6.74,0.98,13.48,2.94,19.89
	c2.53-1.21,4.98-2.6,7.39-4.11c-1.28-5.21-1.92-10.5-1.92-15.78C322.05,231.74,322.05,231.53,322.06,231.32z"/>
<path class="st3" d="M295.48,295.48c0.15-0.15,0.3-0.3,0.45-0.45c3.74-3.74,7.93-7.03,12.52-9.8c-0.63-2.77-1.39-5.48-2.32-8.13
	c-5.92,3.15-11.38,7.22-16.15,11.99c-0.15,0.15-0.3,0.3-0.45,0.45c-0.15,0.15-0.3,0.3-0.45,0.45c-4.77,4.77-8.84,10.23-11.99,16.15
	c2.65,0.93,5.36,1.69,8.13,2.32c2.78-4.59,6.07-8.78,9.8-12.52C295.18,295.78,295.33,295.63,295.48,295.48z"/>
<path class="st3" d="M231.32,322.06c0.21,0,0.43,0,0.64,0c5.29,0,10.58,0.64,15.78,1.92c1.51-2.41,2.9-4.86,4.11-7.39
	c-6.41-1.96-13.15-2.94-19.89-2.94c-0.21,0-0.43,0-0.64,0c-0.21,0-0.43,0-0.64,0c-6.74,0-13.48,0.98-19.89,2.94
	c1.21,2.53,2.6,4.98,4.11,7.39c5.21-1.28,10.5-1.92,15.78-1.92C230.89,322.05,231.1,322.05,231.32,322.06z"/>
<path class="st3" d="M167.15,295.48c0.15,0.15,0.3,0.3,0.45,0.45c3.74,3.74,7.03,7.93,9.8,12.52c2.77-0.63,5.48-1.39,8.13-2.32
	c-3.15-5.92-7.22-11.38-11.99-16.15c-0.15-0.15-0.3-0.3-0.45-0.45c-0.15-0.15-0.3-0.3-0.45-0.45c-4.77-4.77-10.23-8.84-16.15-11.99
	c-0.93,2.65-1.69,5.36-2.32,8.13c4.59,2.78,8.78,6.07,12.52,9.8C166.86,295.18,167.01,295.33,167.15,295.48z"/>
<path class="st3" d="M140.58,231.32c0,0.21,0,0.43,0,0.64c0,5.29-0.64,10.58-1.92,15.78c2.41,1.51,4.86,2.9,7.39,4.11
	c1.96-6.41,2.94-13.15,2.94-19.89c0-0.21,0-0.43,0-0.64c0-0.21,0-0.43,0-0.64c0-6.74-0.98-13.48-2.94-19.89
	c-2.53,1.21-4.98,2.6-7.39,4.11c1.28,5.21,1.92,10.5,1.92,15.78C140.58,230.89,140.58,231.1,140.58,231.32z"/>
<path class="st3" d="M167.15,167.15c-0.15,0.15-0.3,0.3-0.45,0.45c-3.74,3.74-7.93,7.03-12.52,9.8c0.63,2.77,1.39,5.48,2.32,8.13
	c5.92-3.15,11.38-7.22,16.15-11.99c0.15-0.15,0.3-0.3,0.45-0.45c0.15-0.15,0.3-0.3,0.45-0.45c4.77-4.77,8.84-10.23,11.99-16.15
	c-2.65-0.93-5.36-1.69-8.13-2.32c-2.78,4.59-6.07,8.78-9.8,12.52C167.46,166.86,167.31,167.01,167.15,167.15z"/>
<path class="st3" d="M217.81,198.71c2.51-2.47,4.93-5.01,7.29-7.61c-3.46,0.02-6.93,0.05-10.39,0.1c-2.49,2.41-4.96,4.84-7.42,7.28
	C210.79,198.66,214.29,198.74,217.81,198.71z M244.82,198.71c3.52,0.03,7.03-0.06,10.53-0.23c-2.46-2.44-4.94-4.86-7.42-7.28
	c-3.46-0.05-6.93-0.09-10.39-0.1C239.89,193.7,242.31,196.24,244.82,198.71z M263.92,217.81c2.47,2.51,5.01,4.93,7.61,7.29
	c-0.02-3.46-0.05-6.93-0.1-10.39c-2.41-2.49-4.84-4.96-7.28-7.42C263.98,210.79,263.89,214.29,263.92,217.81z M263.92,244.82
	c-0.03,3.52,0.06,7.03,0.23,10.53c2.44-2.46,4.86-4.94,7.28-7.42c0.05-3.46,0.09-6.93,0.1-10.39
	C268.93,239.89,266.39,242.31,263.92,244.82z M244.82,263.92c-2.51,2.47-4.93,5.01-7.29,7.61c3.46-0.02,6.93-0.05,10.39-0.1
	c2.49-2.41,4.96-4.84,7.42-7.28C251.85,263.98,248.34,263.89,244.82,263.92z M217.81,263.92c-3.52-0.03-7.03,0.06-10.53,0.23
	c2.46,2.44,4.94,4.86,7.42,7.28c3.46,0.05,6.93,0.09,10.39,0.1C222.74,268.93,220.32,266.39,217.81,263.92z M198.71,244.82
	c-2.47-2.51-5.01-4.93-7.61-7.29c0.02,3.46,0.05,6.93,0.1,10.39c2.41,2.49,4.84,4.96,7.28,7.42
	C198.66,251.85,198.74,248.34,198.71,244.82z M198.71,217.81c0.03-3.52-0.06-7.03-0.23-10.53c-2.44,2.46-4.86,4.94-7.28,7.42
	c-0.05,3.46-0.09,6.93-0.1,10.39C193.7,222.74,196.24,220.32,198.71,217.81z"/>
<g>
	<path class="st4" d="M339.32,294.85c-0.39-9.04-3.08-21.34-9.73-31.85c-4.02-6.35-10.39-13.49-20.17-18.06
		c5.17-2.79,10.08-6.43,14.42-10.8c12.05-12.16,18.84-28.77,19.12-46.77c0.26-16.58-4.69-30.76-14.32-41.02
		c-9.21-9.81-22.3-15.34-36.87-15.57c-9.48-0.15-19.31,2.34-27.63,7.01c-1.08,0.61-2.56,1.5-4.14,2.62
		c-0.64-2.65-1.71-4.83-3.47-6.67c-2.45-2.55-5.84-3.87-10.08-3.94c-5.5-0.09-11.13,1.93-15.18,3.86
		c-4.05-1.93-9.65-3.97-15.18-3.86c-4.24,0.07-7.63,1.39-10.08,3.94c-1.76,1.84-2.84,4.02-3.47,6.67c-1.58-1.11-3.06-2.01-4.14-2.62
		c-8.32-4.67-18.13-7.16-27.63-7.01c-14.57,0.23-27.66,5.76-36.87,15.57c-9.63,10.26-14.58,24.45-14.32,41.02
		c0.28,18,7.07,34.61,19.12,46.77c4.34,4.38,9.25,8.01,14.42,10.8c-20.82,9.69-29.28,32.35-29.92,49.9l-8.16-7.9l0.26,16.89
		c0.08,5.05,2.2,10.19,5.81,14.12c4.08,4.43,9.66,6.86,15.74,6.86c0.12,0,0.24,0,0.36,0c13.11-0.21,21.43-9.85,21.2-24.57
		c-0.23-14.82,3.21-27.3,10.29-37.16c2.78-3.98,6.3-7.46,10.17-10.05l3.19-2.14c8.71-1.16,15.88-4.94,21.08-9.71l0.75,47.77
		l-8.48-16.32l0.47,29.67c0.16,10.35,8.64,21.2,24.05,21.2c0.17,0,0.35,0,0.52,0c4.1-0.06,7.77-1.16,10.81-3.17
		c3.04,2.01,6.71,3.1,10.81,3.17c0.17,0,0.35,0,0.52,0c15.41,0,23.89-10.86,24.05-21.2l0.47-29.67l-8.48,16.32l0.75-47.69
		c0.17,0.15,0.33,0.3,0.5,0.45c5.68,4.97,12.86,8.14,20.59,9.18l3.19,2.14c3.87,2.59,7.39,6.07,10.22,10.12
		c7.03,9.79,10.47,22.26,10.24,37.09c-0.23,14.72,8.09,24.36,21.2,24.57c0.12,0,0.24,0,0.36,0c6.08,0,11.66-2.43,15.74-6.86
		c3.61-3.92,5.73-9.07,5.81-14.12l0.26-16.9L339.32,294.85z M334.27,299.74l3.83,3.95h-0.01l-3.84-3.93
		C334.26,299.75,334.27,299.74,334.27,299.74z M268.49,177.56l4.85,0.08l1.77-4.51c0.56-1.41,1.16-2.34,2.16-3.31
		c2.58-2.5,5.99-3.69,10.49-3.62c6.2,0.1,11.08,2.49,14.52,7.11c3.42,4.58,5.23,11.17,5.12,18.55c-0.2,12.98-5.27,21.29-9.49,25.97
		c-5.02,5.58-10.83,8.07-14.01,8.02c-14.43-0.23-21.9-7.76-21.97-7.84l-2.16-2.22l0.66-41.84
		C262.69,176,265.39,177.51,268.49,177.56z M160.24,173.3c3.44-4.62,8.33-7.01,14.52-7.11c4.46-0.07,7.9,1.11,10.48,3.62
		c1,0.97,1.6,1.9,2.16,3.31l1.77,4.51l4.85-0.08c3.1-0.05,5.8-1.56,8.06-3.62l0.66,41.84l-2.16,2.22
		c-0.07,0.08-7.54,7.61-21.97,7.84c-3.23,0.05-8.98-2.44-14.01-8.02c-4.22-4.68-9.28-12.99-9.49-25.97
		C155.01,184.47,156.82,177.88,160.24,173.3z"/>
	<g>
		<g>
			<path class="st5" d="M251.51,296.76c-0.06,3.98,0.67,7.7,4.12,7.75c0.8,0.01,1.86-0.24,2.93-1.01c0.53-0.26,0.81-0.78,1.08-1.31
				c-0.09,5.83-5,14.5-17.46,14.31c-9.54-0.15-13.4-7.9-13.25-17.44l2.15-137.31c0.1-6.36-2.24-9.58-6.74-9.65
				c-1.59-0.02-2.92,0.22-3.99,1c-0.53,0.26-0.81,0.78-1.08,1.04c0.1-6.36,16.45-17.51,27.05-17.34c9.01,0.14,7.56,8.07,7.25,27.69
				L251.51,296.76z M314.4,191.96c0.27-17.49-8.77-32.48-26.53-32.76c-7.69-0.12-12.5,2.72-15.47,5.59
				c-1.88,1.83-2.97,3.67-3.8,5.77c-4.51-0.07-10.95-11.57-10.87-17.14c0.07-4.24,14.83-15.94,33.92-15.64
				c25.45,0.4,44.78,18.73,44.3,49.48c-0.56,35.52-28.21,57.36-50.48,57.01c-17.76-0.28-28.69-13.44-28.56-21.39
				c2.09,2.15,11.25,9.72,26.89,9.97C294.93,233.01,313.98,218.73,314.4,191.96z M340.22,303.72c-0.1,6.36-5.53,14.23-14.8,14.08
				c-8.75-0.14-14.49-6.06-14.31-17.46c0.31-19.88-5.58-32.96-11.55-41.28c-3.37-4.83-7.55-8.87-12.01-11.85
				c36.32,0.57,45.06,34.64,44.81,50.55c-0.07,4.51,0.67,7.96,3.59,8.01c1.86,0.03,2.39-0.23,3.2-1.01L340.22,303.72z"/>
		</g>
		<g>
			<path class="st5" d="M208.94,164.49c-0.31-19.62-1.76-27.55,7.25-27.69c10.6-0.17,26.95,10.98,27.05,17.34
				c-0.27-0.26-0.54-0.79-1.08-1.04c-1.07-0.78-2.4-1.02-3.99-1c-4.51,0.07-6.84,3.29-6.74,9.65l2.15,137.31
				c0.15,9.54-3.71,17.29-13.25,17.44c-12.46,0.2-17.37-8.48-17.46-14.31c0.27,0.53,0.55,1.05,1.08,1.31
				c1.07,0.78,2.14,1.03,2.93,1.01c3.45-0.05,4.18-3.78,4.12-7.75L208.94,164.49z M178.72,232.84c15.64-0.25,24.8-7.81,26.89-9.97
				c0.12,7.95-10.8,21.12-28.56,21.39c-22.27,0.35-49.92-21.49-50.48-57.01c-0.48-30.75,18.85-49.08,44.3-49.48
				c19.09-0.3,33.85,11.4,33.92,15.64c0.09,5.57-6.36,17.07-10.87,17.14c-0.83-2.11-1.92-3.95-3.8-5.77
				c-2.96-2.87-7.78-5.71-15.47-5.59c-17.76,0.28-26.8,15.27-26.53,32.76C148.54,218.73,167.59,233.01,178.72,232.84z
				 M123.38,304.76c0.81,0.78,1.34,1.04,3.2,1.01c2.92-0.05,3.66-3.5,3.59-8.01c-0.25-15.9,8.5-49.98,44.81-50.55
				c-4.46,2.99-8.64,7.03-12.01,11.85c-5.97,8.31-11.86,21.4-11.55,41.28c0.18,11.4-5.56,17.32-14.31,17.46
				c-9.28,0.15-14.7-7.72-14.8-14.08L123.38,304.76z"/>
		</g>
	</g>
</g>
<path class="st1" d="M231.32,103.44c-0.21,0-0.43,0.01-0.64,0.01c-10.37,0-20.74-5.29-26.41-15.86c-0.87,0.7-1.75,1.41-2.6,2.11
	c-0.85,0.72-1.68,1.41-2.51,2.11c7.3,12.04,19.41,18.05,31.52,18.05c0.21,0,0.43,0,0.64-0.01c0.21,0,0.43,0.01,0.64,0.01
	c12.11,0,24.22-6.02,31.52-18.05c-0.83-0.7-1.66-1.38-2.51-2.11c-0.85-0.7-1.73-1.41-2.6-2.11c-5.68,10.57-16.04,15.86-26.41,15.86
	C231.74,103.45,231.53,103.44,231.32,103.44z"/>
<path class="st1" d="M321.74,140.89c-0.15-0.15-0.31-0.3-0.46-0.45c-7.33-7.33-10.92-18.4-7.46-29.89
	c-1.11-0.12-2.23-0.24-3.33-0.35c-1.11-0.09-2.18-0.2-3.27-0.29c-3.35,13.67,0.96,26.49,9.52,35.06c0.15,0.15,0.3,0.3,0.46,0.45
	c0.15,0.15,0.3,0.31,0.45,0.46c8.56,8.56,21.38,12.87,35.06,9.52c-0.09-1.08-0.2-2.15-0.29-3.27c-0.11-1.1-0.23-2.21-0.35-3.33
	c-11.49,3.46-22.56-0.13-29.89-7.46C322.04,141.2,321.89,141.05,321.74,140.89z"/>
<path class="st1" d="M359.19,231.32c0-0.21-0.01-0.43-0.01-0.64c0-10.37,5.29-20.74,15.86-26.41c-0.7-0.87-1.41-1.75-2.11-2.6
	c-0.72-0.85-1.41-1.68-2.11-2.51c-12.04,7.3-18.05,19.41-18.05,31.52c0,0.21,0,0.43,0.01,0.64c0,0.21-0.01,0.43-0.01,0.64
	c0,12.11,6.02,24.22,18.05,31.52c0.7-0.83,1.38-1.66,2.11-2.51c0.7-0.85,1.41-1.73,2.11-2.6c-10.57-5.68-15.86-16.04-15.86-26.41
	C359.19,231.74,359.19,231.53,359.19,231.32z"/>
<path class="st1" d="M321.74,321.74c0.15-0.15,0.3-0.31,0.45-0.46c7.33-7.33,18.4-10.92,29.89-7.46c0.12-1.11,0.24-2.23,0.35-3.33
	c0.09-1.11,0.2-2.18,0.29-3.27c-13.67-3.35-26.49,0.96-35.06,9.52c-0.15,0.15-0.3,0.3-0.45,0.46c-0.15,0.15-0.31,0.3-0.46,0.45
	c-8.56,8.56-12.87,21.38-9.52,35.06c1.08-0.09,2.15-0.2,3.27-0.29c1.1-0.11,2.21-0.23,3.33-0.35c-3.46-11.49,0.13-22.56,7.46-29.89
	C321.43,322.04,321.59,321.89,321.74,321.74z"/>
<path class="st1" d="M231.32,359.19c0.21,0,0.43-0.01,0.64-0.01c10.37,0,20.74,5.29,26.41,15.86c0.87-0.7,1.75-1.41,2.6-2.11
	c0.85-0.72,1.68-1.41,2.51-2.11c-7.3-12.04-19.41-18.05-31.52-18.05c-0.21,0-0.43,0-0.64,0.01c-0.21,0-0.43-0.01-0.64-0.01
	c-12.11,0-24.22,6.02-31.52,18.05c0.83,0.7,1.66,1.38,2.51,2.11c0.85,0.7,1.73,1.41,2.6,2.11c5.68-10.57,16.04-15.86,26.41-15.86
	C230.89,359.19,231.1,359.19,231.32,359.19z"/>
<path class="st1" d="M140.89,321.74c0.15,0.15,0.31,0.3,0.46,0.45c7.33,7.33,10.92,18.4,7.46,29.89c1.11,0.12,2.23,0.24,3.33,0.35
	c1.11,0.09,2.18,0.2,3.27,0.29c3.35-13.67-0.96-26.49-9.52-35.06c-0.15-0.15-0.3-0.3-0.46-0.45c-0.15-0.15-0.3-0.31-0.45-0.46
	c-8.56-8.56-21.38-12.87-35.06-9.52c0.09,1.08,0.2,2.15,0.29,3.27c0.11,1.1,0.23,2.21,0.35,3.33c11.49-3.46,22.56,0.13,29.89,7.46
	C140.6,321.43,140.75,321.59,140.89,321.74z"/>
<path class="st1" d="M103.44,231.32c0,0.21,0.01,0.43,0.01,0.64c0,10.37-5.29,20.74-15.86,26.41c0.7,0.87,1.41,1.75,2.11,2.6
	c0.72,0.85,1.41,1.68,2.11,2.51c12.04-7.3,18.05-19.41,18.05-31.52c0-0.21,0-0.43-0.01-0.64c0-0.21,0.01-0.43,0.01-0.64
	c0-12.11-6.02-24.22-18.05-31.52c-0.7,0.83-1.38,1.66-2.11,2.51c-0.7,0.85-1.41,1.73-2.11,2.6c10.57,5.68,15.86,16.04,15.86,26.41
	C103.45,230.89,103.44,231.1,103.44,231.32z"/>
<path class="st1" d="M140.89,140.89c-0.15,0.15-0.3,0.31-0.45,0.46c-7.33,7.33-18.4,10.92-29.89,7.46
	c-0.12,1.11-0.24,2.23-0.35,3.33c-0.09,1.11-0.2,2.18-0.29,3.27c13.67,3.35,26.49-0.96,35.06-9.52c0.15-0.15,0.3-0.3,0.45-0.46
	c0.15-0.15,0.31-0.3,0.46-0.45c8.56-8.56,12.87-21.38,9.52-35.06c-1.08,0.09-2.15,0.2-3.27,0.29c-1.1,0.11-2.21,0.23-3.33,0.35
	c3.46,11.49-0.13,22.56-7.46,29.89C141.2,140.6,141.05,140.75,140.89,140.89z"/>
<path class="st1" d="M212.44,185.73c6.08-0.1,12.16-0.16,18.24-0.16c0.21,0,0.43,0,0.64,0c0.21,0,0.43,0,0.64,0
	c6.08,0,12.16,0.05,18.24,0.16c4.37,4.23,8.71,8.49,13.01,12.79c0.15,0.15,0.3,0.3,0.45,0.45c0.15,0.15,0.3,0.3,0.45,0.45
	c4.3,4.3,8.56,8.64,12.79,13.01c0.1,6.08,0.16,12.16,0.16,18.24c0,0.21,0,0.43,0,0.64s0,0.43,0,0.64c0,6.08-0.05,12.16-0.16,18.24
	c-4.23,4.37-8.49,8.71-12.79,13.01c-0.15,0.15-0.3,0.3-0.45,0.45c-0.15,0.15-0.3,0.3-0.45,0.45c-4.3,4.3-8.64,8.56-13.01,12.79
	c-6.08,0.1-12.16,0.16-18.24,0.16c-0.21,0-0.43,0-0.64,0c-0.21,0-0.43,0-0.64,0c-6.08,0-12.16-0.05-18.24-0.16
	c-4.37-4.23-8.71-8.49-13.01-12.79c-0.15-0.15-0.3-0.3-0.45-0.45s-0.3-0.3-0.45-0.45c-4.3-4.3-8.56-8.64-12.79-13.01
	c-0.1-6.08-0.16-12.16-0.16-18.24c0-0.21,0-0.43,0-0.64s0-0.43,0-0.64c0-6.08,0.05-12.16,0.16-18.24
	c4.23-4.37,8.49-8.71,12.79-13.01c0.15-0.15,0.3-0.3,0.45-0.45c0.15-0.15,0.3-0.3,0.45-0.45
	C203.73,194.22,208.06,189.96,212.44,185.73z M231.32,181.1c-0.21,0-0.43,0-0.64,0c-7.17,0-14.35-0.78-21.13-2.34
	c-3.69,5.9-8.21,11.53-13.28,16.6c-0.15,0.15-0.3,0.3-0.45,0.45c-0.15,0.15-0.3,0.3-0.45,0.45c-5.07,5.07-10.7,9.59-16.6,13.28
	c1.56,6.78,2.34,13.96,2.34,21.13c0,0.21,0,0.43,0,0.64c0,0.21,0,0.43,0,0.64c0,7.17-0.78,14.35-2.34,21.13
	c5.9,3.69,11.53,8.21,16.6,13.28c0.15,0.15,0.3,0.3,0.45,0.45c0.15,0.15,0.3,0.3,0.45,0.45c5.07,5.07,9.59,10.7,13.28,16.6
	c6.78-1.56,13.96-2.34,21.13-2.34c0.21,0,0.43,0,0.64,0c0.21,0,0.43,0,0.64,0c7.17,0,14.35,0.78,21.13,2.34
	c3.69-5.9,8.21-11.53,13.28-16.6c0.15-0.15,0.3-0.3,0.45-0.45c0.15-0.15,0.3-0.3,0.45-0.45c5.07-5.07,10.7-9.59,16.6-13.28
	c-1.56-6.78-2.34-13.96-2.34-21.13c0-0.21,0-0.43,0-0.64c0-0.21,0-0.43,0-0.64c0-7.17,0.78-14.35,2.34-21.13
	c-5.9-3.69-11.53-8.21-16.6-13.28c-0.15-0.15-0.3-0.3-0.45-0.45c-0.15-0.15-0.3-0.3-0.45-0.45c-5.07-5.07-9.59-10.7-13.28-16.6
	c-6.78,1.56-13.96,2.34-21.13,2.34C231.74,181.1,231.53,181.1,231.32,181.1z"/>
<path class="st1" d="M285.6,285.6c0.15-0.15,0.3-0.3,0.45-0.45c5.32-5.32,11.43-9.84,18.03-13.24c-1.1-2.52-2.35-4.94-3.74-7.29
	c-7.41,4.25-13.99,9.25-19.78,15.04c-0.15,0.15-0.3,0.3-0.45,0.45c-0.15,0.15-0.3,0.3-0.45,0.45c-5.79,5.79-10.79,12.37-15.04,19.78
	c2.35,1.39,4.77,2.64,7.29,3.74c3.4-6.6,7.92-12.71,13.24-18.03C285.3,285.9,285.45,285.75,285.6,285.6z"/>
<path class="st1" d="M177.03,285.6c0.15,0.15,0.3,0.3,0.45,0.45c5.32,5.32,9.84,11.43,13.24,18.03c2.52-1.1,4.94-2.35,7.29-3.74
	c-4.25-7.41-9.25-13.99-15.04-19.78c-0.15-0.15-0.3-0.3-0.45-0.45c-0.15-0.15-0.3-0.3-0.45-0.45c-5.79-5.79-12.37-10.79-19.78-15.04
	c-1.39,2.35-2.64,4.77-3.74,7.29c6.6,3.4,12.71,7.92,18.03,13.24C176.74,285.3,176.89,285.45,177.03,285.6z"/>
<path class="st1" d="M231.32,128.21c-0.21,0-0.43,0-0.64,0c-2.62,0-5.24-0.18-7.84-0.54c-1.64,1.94-3.22,3.94-4.71,6.01
	c4.16,0.88,8.35,1.33,12.55,1.33c0.21,0,0.43,0,0.64,0c0.21,0,0.43,0,0.64,0c4.19,0,8.38-0.44,12.55-1.33
	c-1.49-2.07-3.07-4.07-4.71-6.01c-2.6,0.36-5.22,0.54-7.84,0.54C231.74,128.22,231.53,128.21,231.32,128.21z"/>
<path class="st1" d="M334.42,231.32c0-0.21,0-0.43,0-0.64c0-2.62,0.18-5.24,0.54-7.84c-1.94-1.64-3.94-3.22-6.01-4.71
	c-0.88,4.16-1.33,8.35-1.33,12.55c0,0.21,0,0.43,0,0.64c0,0.21,0,0.43,0,0.64c0,4.19,0.44,8.38,1.33,12.55
	c2.07-1.49,4.07-3.07,6.01-4.71c-0.36-2.6-0.54-5.22-0.54-7.84C334.42,231.74,334.42,231.53,334.42,231.32z"/>
<path class="st1" d="M304.22,304.22c0.15-0.15,0.3-0.3,0.45-0.45c1.85-1.85,3.83-3.58,5.93-5.16c-0.21-2.53-0.51-5.06-0.92-7.58
	c-3.57,2.32-6.84,4.97-9.81,7.93c-0.15,0.15-0.3,0.3-0.45,0.45c-0.15,0.15-0.3,0.3-0.45,0.45c-2.96,2.96-5.62,6.24-7.93,9.81
	c2.52,0.41,5.05,0.71,7.58,0.92c1.58-2.09,3.31-4.07,5.16-5.93C303.92,304.52,304.07,304.37,304.22,304.22z"/>
<path class="st1" d="M231.32,334.42c0.21,0,0.43,0,0.64,0c2.62,0,5.24,0.18,7.84,0.54c1.64-1.94,3.22-3.94,4.71-6.01
	c-4.16-0.88-8.35-1.33-12.55-1.33c-0.21,0-0.43,0-0.64,0c-0.21,0-0.43,0-0.64,0c-4.19,0-8.38,0.44-12.55,1.33
	c1.49,2.07,3.07,4.07,4.71,6.01c2.6-0.36,5.22-0.54,7.84-0.54C230.89,334.42,231.1,334.42,231.32,334.42z"/>
<path class="st1" d="M158.41,304.22c0.15,0.15,0.3,0.3,0.45,0.45c1.85,1.85,3.58,3.83,5.16,5.93c2.53-0.21,5.06-0.51,7.58-0.92
	c-2.32-3.57-4.97-6.84-7.93-9.81c-0.15-0.15-0.3-0.3-0.45-0.45c-0.15-0.15-0.3-0.3-0.45-0.45c-2.96-2.96-6.24-5.62-9.81-7.93
	c-0.41,2.52-0.71,5.05-0.92,7.58c2.09,1.58,4.07,3.31,5.93,5.16C158.11,303.92,158.26,304.07,158.41,304.22z"/>
<path class="st1" d="M128.21,231.32c0,0.21,0,0.43,0,0.64c0,2.62-0.18,5.24-0.54,7.84c1.94,1.64,3.94,3.22,6.01,4.71
	c0.88-4.16,1.33-8.35,1.33-12.55c0-0.21,0-0.43,0-0.64c0-0.21,0-0.43,0-0.64c0-4.19-0.44-8.38-1.33-12.55
	c-2.07,1.49-4.07,3.07-6.01,4.71c0.36,2.6,0.54,5.22,0.54,7.84C128.22,230.89,128.21,231.1,128.21,231.32z"/>
<path class="st1" d="M231.32,72.55c-0.22-0.01-0.43-0.02-0.64-0.02c-3.15,0-7.22,1.73-11.65,4.39c1.74,5.97,6.7,8.97,11.65,8.98
	c0.21,0,0.43-0.01,0.64-0.02c0.21,0.01,0.43,0.02,0.64,0.02c4.96-0.01,9.91-3,11.65-8.98c-4.43-2.66-8.5-4.39-11.65-4.39
	C231.75,72.53,231.53,72.53,231.32,72.55z"/>
<path class="st1" d="M343.58,119.05c-0.14-0.16-0.29-0.32-0.44-0.47c-2.23-2.23-6.33-3.89-11.34-5.14
	c-2.99,5.46-1.61,11.07,1.89,14.59c0.15,0.15,0.31,0.3,0.46,0.44c0.14,0.16,0.29,0.31,0.44,0.46c3.51,3.5,9.13,4.88,14.59,1.89
	c-1.25-5.02-2.91-9.11-5.14-11.34C343.9,119.34,343.75,119.19,343.58,119.05z"/>
<path class="st1" d="M390.08,231.32c0.01-0.22,0.02-0.43,0.02-0.64c0-3.15-1.73-7.22-4.39-11.65c-5.97,1.74-8.97,6.7-8.98,11.65
	c0,0.21,0.01,0.43,0.02,0.64c-0.01,0.21-0.02,0.43-0.02,0.64c0.01,4.96,3,9.91,8.98,11.65c2.66-4.43,4.39-8.5,4.39-11.65
	C390.11,231.75,390.1,231.53,390.08,231.32z"/>
<path class="st1" d="M343.58,343.58c0.16-0.14,0.32-0.29,0.47-0.44c2.23-2.23,3.89-6.33,5.14-11.34
	c-5.46-2.99-11.07-1.61-14.59,1.89c-0.15,0.15-0.3,0.31-0.44,0.46c-0.16,0.14-0.31,0.29-0.46,0.44c-3.5,3.51-4.88,9.13-1.89,14.59
	c5.02-1.25,9.11-2.91,11.34-5.14C343.3,343.9,343.44,343.75,343.58,343.58z"/>
<path class="st1" d="M231.32,390.08c0.22,0.01,0.43,0.02,0.64,0.02c3.15,0,7.22-1.73,11.65-4.39c-1.74-5.97-6.7-8.97-11.65-8.98
	c-0.21,0-0.43,0.01-0.64,0.02c-0.21-0.01-0.43-0.02-0.64-0.02c-4.96,0.01-9.91,3-11.65,8.98c4.43,2.66,8.5,4.39,11.65,4.39
	C230.89,390.11,231.1,390.1,231.32,390.08z"/>
<path class="st1" d="M119.05,343.58c0.14,0.16,0.29,0.32,0.44,0.47c2.23,2.23,6.33,3.89,11.34,5.14c2.99-5.46,1.61-11.07-1.89-14.59
	c-0.15-0.15-0.31-0.3-0.46-0.44c-0.14-0.16-0.29-0.31-0.44-0.46c-3.51-3.5-9.13-4.88-14.59-1.89c1.25,5.02,2.91,9.11,5.14,11.34
	C118.73,343.3,118.89,343.44,119.05,343.58z"/>
<path class="st1" d="M72.55,231.32c-0.01,0.22-0.02,0.43-0.02,0.64c0,3.15,1.73,7.22,4.39,11.65c5.97-1.74,8.97-6.7,8.98-11.65
	c0-0.21-0.01-0.43-0.02-0.64c0.01-0.21,0.02-0.43,0.02-0.64c-0.01-4.96-3-9.91-8.98-11.65c-2.66,4.43-4.39,8.5-4.39,11.65
	C72.53,230.89,72.53,231.1,72.55,231.32z"/>
<path class="st1" d="M119.05,119.05c-0.16,0.14-0.32,0.29-0.47,0.44c-2.23,2.23-3.89,6.33-5.14,11.34
	c5.46,2.99,11.07,1.61,14.59-1.89c0.15-0.15,0.3-0.31,0.44-0.46c0.16-0.14,0.31-0.29,0.46-0.44c3.5-3.51,4.88-9.13,1.89-14.59
	c-5.02,1.25-9.11,2.91-11.34,5.14C119.34,118.73,119.19,118.89,119.05,119.05z"/>
<path class="st1" d="M231.32,5.58c-0.2-0.03-0.42-0.05-0.64-0.05c-4.73,0-4.66,7.03,0,7.28c0.22-0.01,0.44-0.04,0.64-0.08
	c0.2,0.04,0.42,0.07,0.64,0.08c4.66-0.26,4.73-7.28,0-7.28C231.73,5.54,231.52,5.55,231.32,5.58z"/>
<path class="st1" d="M390.93,71.7c-0.12-0.16-0.26-0.33-0.42-0.48c-3.34-3.34-8.27,1.67-5.15,5.15c0.17,0.15,0.34,0.28,0.51,0.39
	c0.11,0.17,0.24,0.34,0.39,0.51c3.48,3.12,8.49-1.81,5.15-5.15C391.26,71.96,391.1,71.82,390.93,71.7z"/>
<path class="st1" d="M457.05,231.32c0.03-0.2,0.05-0.42,0.05-0.64c0-4.73-7.03-4.66-7.28,0c0.01,0.22,0.04,0.44,0.08,0.64
	c-0.04,0.2-0.07,0.42-0.08,0.64c0.26,4.66,7.28,4.73,7.28,0C457.1,231.73,457.08,231.52,457.05,231.32z"/>
<path class="st1" d="M390.93,390.93c0.16-0.12,0.33-0.26,0.48-0.42c3.34-3.34-1.67-8.27-5.15-5.15c-0.15,0.17-0.28,0.34-0.39,0.51
	c-0.17,0.11-0.34,0.24-0.51,0.39c-3.12,3.48,1.81,8.49,5.15,5.15C390.67,391.26,390.81,391.1,390.93,390.93z"/>
<path class="st1" d="M231.32,457.05c0.2,0.03,0.42,0.05,0.64,0.05c4.73,0,4.66-7.03,0-7.28c-0.22,0.01-0.44,0.04-0.64,0.08
	c-0.2-0.04-0.42-0.07-0.64-0.08c-4.66,0.26-4.73,7.28,0,7.28C230.9,457.1,231.11,457.08,231.32,457.05z"/>
<path class="st1" d="M71.7,390.93c0.12,0.16,0.26,0.33,0.42,0.48c3.34,3.34,8.27-1.67,5.15-5.15c-0.17-0.15-0.34-0.28-0.51-0.39
	c-0.11-0.17-0.24-0.34-0.39-0.51c-3.48-3.12-8.49,1.81-5.15,5.15C71.37,390.67,71.54,390.81,71.7,390.93z"/>
<path class="st1" d="M5.58,231.32c-0.03,0.2-0.05,0.42-0.05,0.64c0,4.73,7.03,4.66,7.28,0c-0.01-0.22-0.04-0.44-0.08-0.64
	c0.04-0.2,0.07-0.42,0.08-0.64c-0.26-4.66-7.28-4.73-7.28,0C5.54,230.9,5.55,231.11,5.58,231.32z"/>
<path class="st1" d="M71.7,71.7c-0.16,0.12-0.33,0.26-0.48,0.42c-3.34,3.34,1.67,8.27,5.15,5.15c0.15-0.17,0.28-0.34,0.39-0.51
	c0.17-0.11,0.34-0.24,0.51-0.39c3.12-3.48-1.81-8.49-5.15-5.15C71.96,71.37,71.82,71.54,71.7,71.7z"/>
<path class="st1" d="M200.84,29.63c4.69-0.26,4.73-7.28,0-7.28C196.13,22.34,196.19,29.37,200.84,29.63z"/>
<path class="st1" d="M67.15,110.25c3.13-3.49-1.81-8.49-5.15-5.15C58.67,108.43,63.68,113.36,67.15,110.25z"/>
<path class="st1" d="M29.63,261.8c-0.26-4.69-7.28-4.73-7.28,0C22.34,266.5,29.37,266.44,29.63,261.8z"/>
<path class="st1" d="M110.25,395.49c-3.49-3.13-8.49,1.81-5.15,5.15C108.43,403.96,113.36,398.95,110.25,395.49z"/>
<path class="st1" d="M261.8,433.01c-4.69,0.26-4.73,7.28,0,7.28C266.5,440.29,266.44,433.26,261.8,433.01z"/>
<path class="st1" d="M395.49,352.38c-3.13,3.49,1.81,8.49,5.15,5.15C403.96,354.2,398.95,349.28,395.49,352.38z"/>
<path class="st1" d="M433.01,200.84c0.26,4.69,7.28,4.73,7.28,0C440.29,196.13,433.26,196.19,433.01,200.84z"/>
<path class="st1" d="M352.38,67.15c3.49,3.13,8.49-1.81,5.15-5.15C354.2,58.67,349.28,63.68,352.38,67.15z"/>
<path class="st1" d="M261.8,29.63c-4.69-0.26-4.73-7.28,0-7.28C266.5,22.34,266.44,29.37,261.8,29.63z"/>
<path class="st1" d="M110.25,67.15c-3.49,3.13-8.49-1.81-5.15-5.15C108.43,58.67,113.36,63.68,110.25,67.15z"/>
<path class="st1" d="M29.63,200.84c-0.26,4.69-7.28,4.73-7.28,0C22.34,196.13,29.37,196.19,29.63,200.84z"/>
<path class="st1" d="M67.15,352.38c3.13,3.49-1.81,8.49-5.15,5.15C58.67,354.2,63.68,349.28,67.15,352.38z"/>
<path class="st1" d="M200.84,433.01c4.69,0.26,4.73,7.28,0,7.28C196.13,440.29,196.19,433.26,200.84,433.01z"/>
<path class="st1" d="M352.38,395.49c3.49-3.13,8.49,1.81,5.15,5.15C354.2,403.96,349.28,398.95,352.38,395.49z"/>
<path class="st1" d="M433.01,261.8c0.26-4.69,7.28-4.73,7.28,0C440.29,266.5,433.26,266.44,433.01,261.8z"/>
<path class="st1" d="M395.49,110.25c-3.13-3.49,1.81-8.49,5.15-5.15C403.96,108.43,398.95,113.36,395.49,110.25z"/>
<path class="st1" d="M192.49,137.59c3.4-5.62,7.45-10.94,11.92-15.9c-1.81-0.96-3.54-2.07-5.24-3.26
	c-3.58,3.36-7.02,6.91-10.21,10.65c-4.89-0.39-9.84-0.47-14.75-0.31c-0.36,2.05-0.8,4.05-1.4,6.01
	C179.49,135.12,186.12,136.02,192.49,137.59z"/>
<path class="st1" d="M270.14,137.59c6.38-1.57,13-2.47,19.67-2.82c-0.6-1.96-1.04-3.96-1.4-6.01c-4.91-0.16-9.86-0.08-14.75,0.31
	c-3.18-3.73-6.62-7.29-10.21-10.65c-1.7,1.19-3.43,2.3-5.24,3.26C262.69,126.65,266.74,131.97,270.14,137.59z"/>
<path class="st1" d="M270.14,325.04c-3.4,5.62-7.45,10.94-11.92,15.9c1.81,0.96,3.54,2.07,5.24,3.26
	c3.58-3.36,7.02-6.91,10.21-10.65c4.89,0.39,9.84,0.47,14.75,0.31c0.36-2.05,0.8-4.05,1.4-6.01
	C283.14,327.51,276.52,326.61,270.14,325.04z"/>
<path class="st1" d="M192.49,325.04c-6.38,1.57-13,2.47-19.67,2.82c0.6,1.96,1.04,3.96,1.4,6.01c4.91,0.16,9.86,0.08,14.75-0.31
	c3.18,3.73,6.62,7.29,10.21,10.65c1.7-1.19,3.43-2.3,5.24-3.26C199.94,335.99,195.89,330.66,192.49,325.04z"/>
<path class="st1" d="M181.91,112.04c1.81-1.6,3.65-3.16,5.5-4.67c-0.89-1.13-1.68-2.39-2.49-3.6c-0.04,0.02-0.11,0.08-0.15,0.11
	c-1.58,1.22-3.15,2.45-4.72,3.69c-1.99,0.23-3.97,0.47-5.95,0.72c-0.05,0.01-0.14,0.01-0.18,0.03c0.29,1.43,0.62,2.88,0.78,4.31
	C177.1,112.39,179.5,112.19,181.91,112.04z"/>
<path class="st1" d="M280.72,112.04c2.41,0.15,4.81,0.35,7.2,0.59c0.17-1.43,0.5-2.88,0.78-4.31c-0.05-0.02-0.14-0.02-0.18-0.03
	c-1.97-0.26-3.96-0.5-5.95-0.72c-1.57-1.25-3.14-2.48-4.72-3.69c-0.04-0.02-0.11-0.09-0.15-0.11c-0.81,1.21-1.6,2.47-2.49,3.6
	C277.07,108.89,278.91,110.45,280.72,112.04z"/>
<path class="st1" d="M350.59,181.91c1.6,1.81,3.16,3.65,4.67,5.5c1.13-0.89,2.39-1.68,3.6-2.49c-0.02-0.04-0.08-0.11-0.11-0.15
	c-1.21-1.58-2.45-3.15-3.69-4.72c-0.23-1.99-0.47-3.97-0.72-5.95c-0.01-0.05-0.01-0.14-0.03-0.18c-1.43,0.29-2.88,0.62-4.31,0.78
	C350.24,177.1,350.44,179.5,350.59,181.91z"/>
<path class="st1" d="M350.59,280.72c-0.15,2.41-0.35,4.81-0.59,7.2c1.43,0.17,2.88,0.5,4.31,0.78c0.02-0.05,0.02-0.14,0.03-0.18
	c0.26-1.97,0.5-3.96,0.72-5.95c1.25-1.57,2.48-3.14,3.69-4.72c0.02-0.04,0.09-0.11,0.11-0.15c-1.21-0.81-2.47-1.6-3.6-2.49
	C353.75,277.07,352.19,278.91,350.59,280.72z"/>
<path class="st1" d="M280.72,350.59c-1.81,1.6-3.65,3.16-5.5,4.67c0.89,1.13,1.68,2.39,2.49,3.6c0.04-0.02,0.11-0.08,0.15-0.11
	c1.58-1.22,3.15-2.45,4.72-3.69c1.99-0.23,3.97-0.47,5.95-0.72c0.05-0.01,0.14-0.01,0.18-0.03c-0.29-1.43-0.62-2.88-0.78-4.31
	C285.53,350.24,283.13,350.44,280.72,350.59z"/>
<path class="st1" d="M181.91,350.59c-2.41-0.15-4.81-0.35-7.2-0.59c-0.17,1.43-0.5,2.88-0.78,4.31c0.05,0.02,0.14,0.02,0.18,0.03
	c1.97,0.26,3.96,0.5,5.95,0.72c1.57,1.25,3.14,2.48,4.72,3.69c0.04,0.02,0.11,0.09,0.15,0.11c0.81-1.21,1.6-2.47,2.49-3.6
	C185.56,353.75,183.72,352.19,181.91,350.59z"/>
<path class="st1" d="M112.04,280.72c-1.6-1.81-3.16-3.65-4.67-5.5c-1.13,0.89-2.39,1.68-3.6,2.49c0.02,0.04,0.09,0.11,0.11,0.15
	c1.22,1.58,2.45,3.15,3.69,4.72c0.23,1.99,0.47,3.97,0.72,5.95c0.01,0.05,0.01,0.14,0.03,0.18c1.43-0.29,2.88-0.62,4.31-0.78
	C112.39,285.53,112.19,283.13,112.04,280.72z"/>
<path class="st1" d="M112.04,181.91c0.15-2.41,0.35-4.81,0.59-7.2c-1.43-0.17-2.88-0.5-4.31-0.78c-0.02,0.05-0.02,0.14-0.03,0.18
	c-0.26,1.97-0.5,3.96-0.72,5.95c-1.25,1.57-2.48,3.14-3.69,4.72c-0.02,0.04-0.09,0.11-0.11,0.15c1.21,0.81,2.47,1.6,3.6,2.49
	C108.89,185.56,110.45,183.72,112.04,181.91z"/>
<path class="st1" d="M173.79,47.71c4.69-0.28,4.71-7.31,0-7.31C169.06,40.41,169.12,47.44,173.79,47.71z"/>
<path class="st1" d="M142.17,401.83c-3.51-3.12-8.49,1.84-5.17,5.17C140.35,410.34,145.27,405.32,142.17,401.83z"/>
<path class="st1" d="M288.85,414.92c-4.69,0.28-4.71,7.31,0,7.31C293.58,422.23,293.51,415.2,288.85,414.92z"/>
<path class="st1" d="M288.85,47.71c-4.69-0.28-4.71-7.31,0-7.31C293.58,40.41,293.51,47.44,288.85,47.71z"/>
<path class="st1" d="M173.79,414.92c4.69,0.28,4.71,7.31,0,7.31C169.06,422.23,169.12,415.2,173.79,414.92z"/>
<path class="st1" d="M320.46,401.83c3.51-3.12,8.49,1.84,5.17,5.17C322.29,410.34,317.36,405.32,320.46,401.83z"/>
<path class="st0" d="M199.67,35c0.34,0.13,0.72,0.19,1.17,0.17c0.58,0.04,1.02-0.11,1.41-0.32c4.3-0.85,7.77-4.17,7.77-8.86
	c0-4.98-4.2-9.18-9.18-9.18c-4.84,0-8.92,3.94-9.16,8.75C191.46,30.52,195.06,34.21,199.67,35z M200.84,22.34
	c4.73,0,4.69,7.03,0,7.28C196.19,29.37,196.13,22.34,200.84,22.34z"/>
<path class="st0" d="M114.88,392.52c-0.15-0.33-0.38-0.65-0.71-0.95c-0.38-0.44-0.8-0.65-1.22-0.77c-3.64-2.44-8.45-2.55-11.76,0.77
	c-3.52,3.52-3.52,9.46,0,12.98c3.42,3.42,9.1,3.52,12.67,0.29C117.51,401.48,117.57,396.33,114.88,392.52z M105.1,400.64
	c-3.34-3.34,1.66-8.28,5.15-5.15C113.36,398.95,108.43,403.96,105.1,400.64z"/>
<path class="st0" d="M262.97,427.64c-0.34-0.13-0.72-0.19-1.17-0.17c-0.58-0.04-1.02,0.11-1.41,0.32c-4.3,0.85-7.77,4.17-7.77,8.86
	c0,4.98,4.2,9.18,9.18,9.18c4.84,0,8.92-3.94,9.16-8.75C271.17,432.11,267.57,428.43,262.97,427.64z M261.8,440.29
	c-4.73,0-4.69-7.03,0-7.28C266.44,433.26,266.5,440.29,261.8,440.29z"/>
<path class="st0" d="M199.67,427.64c0.34-0.13,0.72-0.19,1.17-0.17c0.58-0.04,1.02,0.11,1.41,0.32c4.3,0.85,7.77,4.17,7.77,8.86
	c0,4.98-4.2,9.18-9.18,9.18c-4.84,0-8.92-3.94-9.16-8.75C191.46,432.11,195.06,428.43,199.67,427.64z M200.84,440.29
	c4.73,0,4.69-7.03,0-7.28C196.19,433.26,196.13,440.29,200.84,440.29z"/>
<path class="st0" d="M347.76,392.52c0.15-0.33,0.38-0.65,0.71-0.95c0.38-0.44,0.8-0.65,1.22-0.77c3.64-2.44,8.45-2.55,11.76,0.77
	c3.52,3.52,3.52,9.46,0,12.98c-3.42,3.42-9.1,3.52-12.67,0.29C345.12,401.48,345.06,396.33,347.76,392.52z M357.53,400.64
	c3.34-3.34-1.66-8.28-5.15-5.15C349.28,398.95,354.2,403.96,357.53,400.64z"/>
<path class="st6" d="M225.3,216.79c1.16-1.28,2.3-2.57,3.42-3.89c0.46-0.53,1.21-0.8,1.96-0.8c0.22,0,0.43,0.02,0.64,0.07
	c0.21-0.04,0.42-0.07,0.64-0.07c0.75,0,1.5,0.27,1.96,0.8c1.12,1.32,2.26,2.62,3.42,3.89c1.73-0.08,3.45-0.19,5.17-0.33
	c0.7-0.05,1.42,0.29,1.95,0.82c0.15,0.15,0.29,0.32,0.41,0.5c0.18,0.12,0.35,0.25,0.5,0.41c0.53,0.53,0.87,1.25,0.82,1.95
	c-0.14,1.72-0.26,3.45-0.33,5.17c1.28,1.16,2.57,2.3,3.89,3.42c0.53,0.46,0.8,1.21,0.8,1.96c0,0.22-0.02,0.43-0.07,0.64
	c0.04,0.21,0.07,0.42,0.07,0.64c0,0.75-0.27,1.5-0.8,1.96c-1.32,1.12-2.62,2.26-3.89,3.42c0.08,1.73,0.19,3.45,0.33,5.17
	c0.05,0.7-0.29,1.42-0.82,1.95c-0.15,0.15-0.32,0.29-0.5,0.41c-0.12,0.18-0.25,0.35-0.41,0.5c-0.53,0.53-1.25,0.87-1.95,0.82
	c-1.72-0.14-3.45-0.26-5.17-0.33c-1.16,1.28-2.3,2.57-3.42,3.89c-0.46,0.53-1.21,0.8-1.96,0.8c-0.22,0-0.43-0.02-0.64-0.07
	c-0.21,0.04-0.42,0.07-0.64,0.07c-0.75,0-1.5-0.27-1.96-0.8c-1.12-1.32-2.26-2.62-3.42-3.89c-1.73,0.08-3.45,0.19-5.17,0.33
	c-0.7,0.05-1.42-0.29-1.95-0.82c-0.15-0.15-0.29-0.32-0.41-0.5c-0.18-0.12-0.35-0.25-0.5-0.41c-0.53-0.53-0.87-1.25-0.82-1.95
	c0.14-1.72,0.26-3.45,0.33-5.17c-1.28-1.16-2.57-2.3-3.89-3.42c-0.53-0.46-0.8-1.21-0.8-1.96c0-0.22,0.02-0.43,0.07-0.64
	c-0.04-0.21-0.07-0.42-0.07-0.64c0-0.75,0.27-1.5,0.8-1.96c1.32-1.12,2.62-2.26,3.89-3.42c-0.08-1.73-0.19-3.45-0.33-5.17
	c-0.05-0.7,0.29-1.42,0.82-1.95c0.15-0.15,0.32-0.29,0.5-0.41c0.12-0.18,0.25-0.35,0.41-0.5c0.53-0.53,1.25-0.87,1.95-0.82
	C221.85,216.6,223.57,216.71,225.3,216.79z M231.32,193.89c-0.21-0.24-0.43-0.48-0.64-0.72c-3.38,3.82-6.9,7.51-10.59,11.04
	c-5.11,0.12-10.2-0.01-15.29-0.32c0.02,0.32,0.04,0.64,0.06,0.96c-0.32-0.02-0.64-0.04-0.96-0.06c0.31,5.09,0.44,10.19,0.32,15.29
	c-3.53,3.69-7.22,7.21-11.04,10.59c0.24,0.21,0.48,0.43,0.72,0.64c-0.24,0.21-0.48,0.43-0.72,0.64c3.82,3.38,7.51,6.9,11.04,10.59
	c0.12,5.11-0.01,10.2-0.32,15.29c0.32-0.02,0.64-0.04,0.96-0.06c-0.02,0.32-0.04,0.64-0.06,0.96c5.09-0.31,10.19-0.44,15.29-0.32
	c3.69,3.53,7.21,7.22,10.59,11.04c0.21-0.24,0.43-0.48,0.64-0.72c0.21,0.24,0.43,0.48,0.64,0.72c3.38-3.82,6.9-7.51,10.59-11.04
	c5.11-0.12,10.2,0.01,15.29,0.32c-0.02-0.32-0.04-0.64-0.06-0.96c0.32,0.02,0.64,0.04,0.96,0.06c-0.31-5.09-0.44-10.19-0.32-15.29
	c3.53-3.69,7.22-7.21,11.04-10.59c-0.24-0.21-0.48-0.43-0.72-0.64c0.24-0.21,0.48-0.43,0.72-0.64c-3.82-3.38-7.51-6.9-11.04-10.59
	c-0.12-5.11,0.01-10.2,0.32-15.29c-0.32,0.02-0.64,0.04-0.96,0.06c0.02-0.32,0.04-0.64,0.06-0.96c-5.09,0.31-10.19,0.44-15.29,0.32
	c-3.69-3.53-7.21-7.22-10.59-11.04C231.74,193.41,231.53,193.65,231.32,193.89z"/>
<path class="st6" d="M200.75,157.52c2.84-11.14,8.61-21.61,16.02-31.02c-2.41-0.62-4.77-1.43-7.11-2.36
	c-5.65,6.06-10.67,12.71-14.52,19.82c-7.75-2.3-16-3.46-24.28-3.75c-0.99,2.32-2.09,4.56-3.36,6.7
	C179.38,148.33,190.86,151.66,200.75,157.52z"/>
<path class="st6" d="M261.88,157.52c9.89-5.87,21.37-9.19,33.26-10.61c-1.27-2.14-2.36-4.38-3.36-6.7
	c-8.28,0.29-16.53,1.44-24.29,3.75c-3.86-7.11-8.87-13.76-14.52-19.82c-2.34,0.94-4.71,1.75-7.11,2.36
	C253.27,135.91,259.04,146.38,261.88,157.52z"/>
<path class="st6" d="M305.11,200.75c11.14,2.84,21.61,8.61,31.02,16.02c0.62-2.41,1.43-4.77,2.36-7.11
	c-6.06-5.65-12.71-10.67-19.82-14.52c2.3-7.75,3.46-16,3.75-24.28c-2.32-0.99-4.56-2.09-6.7-3.36
	C314.3,179.38,310.98,190.86,305.11,200.75z"/>
<path class="st6" d="M305.11,261.88c5.87,9.89,9.19,21.37,10.61,33.26c2.14-1.27,4.38-2.36,6.7-3.36
	c-0.29-8.28-1.44-16.53-3.75-24.29c7.11-3.86,13.76-8.87,19.82-14.52c-0.94-2.34-1.75-4.71-2.36-7.11
	C326.72,253.27,316.25,259.04,305.11,261.88z"/>
<path class="st6" d="M261.88,305.11c-2.84,11.14-8.61,21.61-16.02,31.02c2.41,0.62,4.77,1.43,7.11,2.36
	c5.65-6.06,10.67-12.71,14.52-19.82c7.75,2.3,16,3.46,24.29,3.75c0.99-2.32,2.09-4.56,3.36-6.7
	C283.26,314.3,271.77,310.98,261.88,305.11z"/>
<path class="st6" d="M200.75,305.11c-9.89,5.87-21.37,9.19-33.26,10.61c1.27,2.14,2.36,4.38,3.36,6.7
	c8.28-0.29,16.53-1.44,24.28-3.75c3.86,7.11,8.87,13.76,14.52,19.82c2.34-0.94,4.71-1.75,7.11-2.36
	C209.36,326.72,203.59,316.25,200.75,305.11z"/>
<path class="st6" d="M157.52,261.88c-11.14-2.84-21.61-8.61-31.02-16.02c-0.62,2.41-1.43,4.77-2.36,7.11
	c6.06,5.65,12.71,10.67,19.82,14.52c-2.3,7.75-3.46,16-3.75,24.29c2.32,0.99,4.56,2.09,6.7,3.36
	C148.33,283.26,151.66,271.77,157.52,261.88z"/>
<path class="st6" d="M157.52,200.75c-5.87-9.89-9.19-21.37-10.61-33.26c-2.14,1.27-4.38,2.36-6.7,3.36
	c0.29,8.28,1.44,16.53,3.75,24.28c-7.11,3.86-13.76,8.87-19.82,14.52c0.94,2.34,1.75,4.71,2.36,7.11
	C135.91,209.36,146.38,203.59,157.52,200.75z"/>
<path class="st6" d="M186.62,123.4c2.6-2.92,5.35-5.74,8.19-8.42c-1.3-1.11-2.53-2.28-3.73-3.51c-2.34,1.92-4.67,3.9-6.94,5.95
	c-3.06,0.16-6.11,0.4-9.12,0.7c0.03,1.72-0.02,3.42-0.15,5.12C178.78,123.13,182.71,123.17,186.62,123.4z"/>
<path class="st6" d="M276.02,123.4c3.91-0.23,7.84-0.28,11.75-0.17c-0.14-1.7-0.18-3.4-0.15-5.12c-3.01-0.3-6.06-0.54-9.12-0.7
	c-2.28-2.05-4.6-4.04-6.94-5.95c-1.19,1.24-2.43,2.41-3.73,3.51C270.67,117.67,273.42,120.48,276.02,123.4z"/>
<path class="st6" d="M339.23,186.62c2.92,2.6,5.74,5.35,8.42,8.19c1.11-1.3,2.28-2.53,3.51-3.73c-1.92-2.34-3.9-4.67-5.95-6.94
	c-0.16-3.06-0.4-6.11-0.7-9.12c-1.72,0.03-3.42-0.02-5.12-0.15C339.51,178.78,339.46,182.71,339.23,186.62z"/>
<path class="st6" d="M339.23,276.02c0.23,3.91,0.28,7.84,0.17,11.75c1.7-0.14,3.4-0.18,5.12-0.15c0.3-3.01,0.54-6.06,0.7-9.12
	c2.05-2.28,4.04-4.6,5.95-6.94c-1.24-1.19-2.41-2.43-3.51-3.73C344.97,270.67,342.16,273.42,339.23,276.02z"/>
<path class="st6" d="M276.02,339.23c-2.6,2.92-5.35,5.74-8.19,8.42c1.3,1.11,2.53,2.28,3.73,3.51c2.34-1.92,4.67-3.9,6.94-5.95
	c3.06-0.16,6.11-0.4,9.12-0.7c-0.03-1.72,0.01-3.42,0.15-5.12C283.85,339.51,279.92,339.46,276.02,339.23z"/>
<path class="st6" d="M186.62,339.23c-3.91,0.23-7.84,0.28-11.75,0.17c0.14,1.7,0.18,3.4,0.15,5.12c3.01,0.3,6.06,0.54,9.12,0.7
	c2.28,2.05,4.6,4.04,6.94,5.95c1.19-1.24,2.43-2.41,3.73-3.51C191.96,344.97,189.22,342.16,186.62,339.23z"/>
<path class="st6" d="M123.4,276.02c-2.92-2.6-5.74-5.35-8.42-8.19c-1.11,1.3-2.28,2.53-3.51,3.73c1.92,2.34,3.9,4.67,5.95,6.94
	c0.16,3.06,0.4,6.11,0.7,9.12c1.72-0.03,3.42,0.01,5.12,0.15C123.13,283.85,123.17,279.92,123.4,276.02z"/>
<path class="st6" d="M123.4,186.62c-0.23-3.91-0.28-7.84-0.17-11.75c-1.7,0.14-3.4,0.18-5.12,0.15c-0.3,3.01-0.54,6.06-0.7,9.12
	c-2.05,2.28-4.04,4.6-5.95,6.94c1.24,1.19,2.41,2.43,3.51,3.73C117.67,191.96,120.48,189.22,123.4,186.62z"/>
<path class="st1" d="M47.71,288.85c-0.28-4.69-7.31-4.71-7.31,0C40.41,293.58,47.44,293.51,47.71,288.85z"/>
<path class="st1" d="M47.71,173.79c-0.28,4.69-7.31,4.71-7.31,0C40.41,169.06,47.44,169.12,47.71,173.79z"/>
<path class="st1" d="M414.92,173.79c0.28,4.69,7.31,4.71,7.31,0C422.23,169.06,415.2,169.12,414.92,173.79z"/>
<path class="st1" d="M414.92,288.85c0.28-4.69,7.31-4.71,7.31,0C422.23,293.58,415.2,293.51,414.92,288.85z"/>
<path class="st1" d="M142.17,60.81c-3.51,3.12-8.49-1.84-5.17-5.17C140.35,52.3,145.27,57.31,142.17,60.81z"/>
<path class="st1" d="M320.46,60.81c3.51,3.12,8.49-1.84,5.17-5.17C322.29,52.3,317.36,57.31,320.46,60.81z"/>
<g>
	<path class="st0" d="M249.57,228.72c-1.32-1.12-2.62-2.26-3.89-3.42c0.08-1.73,0.19-3.45,0.33-5.17c0.05-0.7-0.29-1.42-0.82-1.95
		c-0.15-0.15-0.32-0.29-0.5-0.41c-0.12-0.18-0.25-0.35-0.41-0.5c-0.53-0.53-1.25-0.87-1.95-0.82c-1.72,0.14-3.45,0.26-5.17,0.33
		c-1.16-1.28-2.3-2.57-3.42-3.89c-0.46-0.53-1.21-0.8-1.96-0.8c-0.22,0-0.43,0.02-0.64,0.07c-0.21-0.04-0.42-0.07-0.64-0.07
		c-0.75,0-1.5,0.27-1.96,0.8c-1.12,1.32-2.26,2.62-3.42,3.89c-1.73-0.08-3.45-0.19-5.17-0.33c-0.7-0.05-1.42,0.29-1.95,0.82
		c-0.15,0.15-0.29,0.32-0.41,0.5c-0.18,0.12-0.35,0.25-0.5,0.41c-0.53,0.53-0.87,1.25-0.82,1.95c0.14,1.72,0.26,3.45,0.33,5.17
		c-1.28,1.16-2.57,2.3-3.89,3.42c-0.53,0.46-0.8,1.21-0.8,1.96c0,0.22,0.02,0.43,0.07,0.64c-0.04,0.21-0.07,0.42-0.07,0.64
		c0,0.75,0.27,1.5,0.8,1.96c1.32,1.12,2.62,2.26,3.89,3.42c-0.08,1.73-0.19,3.45-0.33,5.17c-0.05,0.7,0.29,1.42,0.82,1.95
		c0.15,0.15,0.32,0.29,0.5,0.41c0.12,0.18,0.25,0.35,0.41,0.5c0.53,0.53,1.25,0.87,1.95,0.82c1.72-0.14,3.45-0.26,5.17-0.33
		c1.16,1.28,2.3,2.57,3.42,3.89c0.46,0.53,1.21,0.8,1.96,0.8c0.22,0,0.43-0.02,0.64-0.07c0.21,0.04,0.42,0.07,0.64,0.07
		c0.75,0,1.5-0.27,1.96-0.8c1.12-1.32,2.26-2.62,3.42-3.89c1.73,0.08,3.45,0.19,5.17,0.33c0.7,0.05,1.42-0.29,1.95-0.82
		c0.15-0.15,0.29-0.32,0.41-0.5c0.18-0.12,0.35-0.25,0.5-0.41c0.53-0.53,0.87-1.25,0.82-1.95c-0.14-1.72-0.26-3.45-0.33-5.17
		c1.28-1.16,2.57-2.3,3.89-3.42c0.53-0.46,0.8-1.21,0.8-1.96c0-0.22-0.02-0.43-0.07-0.64c0.04-0.21,0.07-0.42,0.07-0.64
		C250.37,229.93,250.1,229.18,249.57,228.72z"/>
</g>
<path class="st2" d="M231.32,221.75c-0.22-0.25-0.43-0.5-0.64-0.74c-0.77,0.89-1.6,1.86-2.44,2.89c-1.32-0.13-2.59-0.23-3.76-0.32
	c0.02,0.32,0.05,0.64,0.07,0.98c-0.33-0.03-0.66-0.05-0.98-0.07c0.08,1.17,0.18,2.44,0.32,3.76c-1.03,0.84-2,1.67-2.89,2.44
	c0.24,0.21,0.49,0.42,0.74,0.64c-0.25,0.22-0.5,0.43-0.74,0.64c0.89,0.77,1.86,1.6,2.89,2.44c-0.13,1.32-0.23,2.59-0.32,3.76
	c0.32-0.02,0.64-0.05,0.98-0.07c-0.03,0.33-0.05,0.66-0.07,0.98c1.17-0.08,2.44-0.18,3.76-0.32c0.84,1.03,1.67,2,2.44,2.88
	c0.21-0.24,0.42-0.49,0.64-0.74c0.22,0.25,0.43,0.5,0.64,0.74c0.77-0.89,1.6-1.86,2.44-2.88c1.32,0.13,2.59,0.23,3.76,0.32
	c-0.02-0.32-0.05-0.64-0.07-0.98c0.33,0.03,0.66,0.05,0.98,0.07c-0.08-1.17-0.18-2.44-0.32-3.76c1.03-0.84,2-1.67,2.88-2.44
	c-0.24-0.21-0.49-0.42-0.74-0.64c0.25-0.22,0.5-0.43,0.74-0.64c-0.89-0.77-1.86-1.6-2.88-2.44c0.13-1.32,0.23-2.59,0.32-3.76
	c-0.32,0.02-0.64,0.05-0.98,0.07c0.03-0.33,0.05-0.66,0.07-0.98c-1.17,0.08-2.44,0.18-3.76,0.32c-0.84-1.03-1.67-2-2.44-2.89
	C231.75,221.25,231.53,221.5,231.32,221.75z"/>
</svg>
